<?xml version="1.0" standalone="no"?>
<!DOCTYPE svg PUBLIC "-//W3C//DTD SVG 20010904//EN"
 "http://www.w3.org/TR/2001/REC-SVG-20010904/DTD/svg10.dtd">
<svg version="1.0" xmlns="http://www.w3.org/2000/svg"
 width="1024.000000pt" height="1024.000000pt" viewBox="0 0 1024.000000 1024.000000"
 preserveAspectRatio="xMidYMid meet">
<metadata>
Created by potrace 1.14, written by Peter Selinger 2001-2017
</metadata>
<g transform="translate(0.000000,1024.000000) scale(0.100000,-0.100000)"
fill="#000000" stroke="none">
<path d="M5109 9952 c-282 -260 -749 -710 -1004 -966 -160 -161 -297 -295
-305 -298 -19 -8 -200 -173 -530 -483 -222 -208 -1605 -1517 -1855 -1755 -176
-168 -853 -808 -1005 -952 -85 -80 -201 -190 -257 -244 l-102 -99 6 -2557 6
-2558 3338 0 c2144 0 3347 3 3363 10 16 6 26 17 26 30 0 19 6 20 106 20 106 0
107 0 155 -35 l49 -35 463 0 c254 0 951 3 1550 7 l1087 6 -2 641 -3 641 -67
24 -68 25 0 243 c0 134 2 243 4 243 2 0 23 -7 46 -15 23 -8 52 -15 65 -15 l22
0 6 683 c4 375 7 1173 7 1772 l0 1091 -262 244 c-145 135 -312 293 -373 351
l-109 107 -6 1015 c-3 559 -8 1018 -11 1022 -4 3 -249 8 -545 12 l-539 6 -190
-103 c-277 -150 -378 -212 -392 -240 -7 -14 -13 -47 -13 -73 0 -27 -4 -47 -10
-45 -8 2 -516 473 -895 828 -103 97 -411 383 -720 670 -115 107 -248 231 -295
275 -197 186 -597 555 -621 574 l-26 20 -94 -87z m-833 -1567 c159 -181 318
-364 353 -405 35 -41 105 -120 156 -175 96 -105 384 -460 470 -580 27 -39 64
-90 82 -115 377 -523 730 -1176 968 -1785 77 -197 69 -177 135 -325 128 -282
257 -512 442 -785 171 -255 327 -455 516 -663 544 -600 1171 -1061 1900 -1396
228 -105 387 -167 720 -281 9 -3 12 -63 12 -251 0 -231 -1 -246 -17 -239 -10
4 -83 27 -163 50 -129 38 -268 87 -455 160 -105 41 -475 226 -620 311 -388
226 -766 515 -1088 833 -167 164 -464 510 -550 642 -37 57 -60 68 -129 69 -17
0 -18 -88 -20 -1657 l-3 -1658 -97 -3 -98 -3 0 1893 0 1893 -104 205 c-118
234 -149 303 -241 525 -36 88 -90 212 -120 275 -29 63 -79 171 -110 240 -31
69 -62 136 -69 150 -40 81 -255 496 -287 553 -22 38 -39 71 -39 73 0 3 -48 87
-107 187 -58 100 -131 225 -161 277 -77 135 -370 582 -520 796 -339 483 -682
909 -1075 1339 l-129 140 53 48 52 49 27 -29 c15 -15 157 -176 316 -358z
m2945 -5162 c13 -16 12 -17 -3 -4 -10 7 -18 15 -18 17 0 8 8 3 21 -13z m50
-60 c13 -16 12 -17 -3 -4 -10 7 -18 15 -18 17 0 8 8 3 21 -13z m264 -303 c33
-33 57 -60 54 -60 -2 0 -31 27 -64 60 -33 33 -57 60 -54 60 2 0 31 -27 64 -60z
m265 -265 c19 -19 32 -35 29 -35 -3 0 -20 16 -39 35 -19 19 -32 35 -29 35 3 0
20 -16 39 -35z m81 -72 c13 -16 12 -17 -3 -4 -10 7 -18 15 -18 17 0 8 8 3 21
-13z"/>
</g>
</svg>
